<svg width="1600" height="900" viewBox="0 0 1600 900" fill="none" xmlns="http://www.w3.org/2000/svg" role="img" aria-label="Sah and Sons Group Maa Tara blessing cover image">
  <defs>
    <linearGradient id="bg" x1="120" y1="80" x2="1500" y2="860" gradientUnits="userSpaceOnUse">
      <stop stop-color="#3D0818"/>
      <stop offset="0.5" stop-color="#7C102A"/>
      <stop offset="1" stop-color="#B11E2F"/>
    </linearGradient>
    <radialGradient id="aura" cx="0" cy="0" r="1" gradientUnits="userSpaceOnUse" gradientTransform="translate(310 250) rotate(30) scale(430 430)">
      <stop stop-color="#FFD67A" stop-opacity="0.92"/>
      <stop offset="1" stop-color="#FFD67A" stop-opacity="0"/>
    </radialGradient>
    <linearGradient id="glass" x1="720" y1="200" x2="1500" y2="780" gradientUnits="userSpaceOnUse">
      <stop stop-color="#FFFFFF" stop-opacity="0.24"/>
      <stop offset="1" stop-color="#FFFFFF" stop-opacity="0.08"/>
    </linearGradient>
    <linearGradient id="gold" x1="250" y1="190" x2="360" y2="390" gradientUnits="userSpaceOnUse">
      <stop stop-color="#FFE4A3"/>
      <stop offset="1" stop-color="#D79A37"/>
    </linearGradient>
  </defs>

  <rect width="1600" height="900" rx="42" fill="url(#bg)"/>
  <circle cx="310" cy="250" r="300" fill="url(#aura)"/>

  <!-- Ornamental arch with blessings of Maa Tara -->
  <path d="M150 120C150 86.9 176.9 60 210 60H430C463.1 60 490 86.9 490 120V470H150V120Z" fill="#7A0E24" fill-opacity="0.65" stroke="#D6A858" stroke-width="4"/>
  <rect x="177" y="94" width="286" height="16" rx="8" fill="#D6A858"/>

  <!-- Sacred star + modern S mark -->
  <path d="M320 143L332.8 178.2H369.2L339.9 200.4L350.9 235.6L320 213L289.1 235.6L300.1 200.4L270.8 178.2H307.2L320 143Z" fill="#FFE8AB"/>
  <circle cx="320" cy="282" r="92" fill="url(#gold)" fill-opacity="0.18"/>
  <path d="M380 240C369 228 353.3 220.5 332.4 220.5C306.1 220.5 286.2 234 286.2 252.8C286.2 269 299.5 278.8 325.4 284.1C350.8 289.3 359.5 293.9 359.5 303.3C359.5 313.7 349.1 320.8 331.8 320.8C316.5 320.8 303.2 315.4 291.8 305.2L277.8 319.4C291.4 332.4 309.7 340.1 331.6 340.1C361.7 340.1 381.7 325.8 381.7 304.5C381.7 286.4 370.1 276.5 340.1 270.1C318 265.2 307.6 261.4 307.6 252.4C307.6 242.6 317.4 236.8 333.8 236.8C347.2 236.8 358.1 241.2 367.8 250.1L380 240Z" fill="#FFEFC7"/>
  <path d="M232 378C259 357.3 289.6 347 320 347C350.4 347 381 357.3 408 378" stroke="#DFA042" stroke-width="9" stroke-linecap="round"/>

  <text x="120" y="560" fill="#FFF7EB" font-family="Manrope, Arial, sans-serif" font-size="64" font-weight="800">Sah and Sons Group</text>
  <text x="120" y="614" fill="#F8DDB6" font-family="Manrope, Arial, sans-serif" font-size="30" font-weight="600">With blessings of Maa Tara, legacy with modern enterprise vision</text>

  <g opacity="0.96">
    <rect x="720" y="190" width="790" height="590" rx="36" fill="url(#glass)" stroke="#E7C58C" stroke-opacity="0.5"/>

    <rect x="770" y="258" width="690" height="146" rx="22" fill="#5B0C20" fill-opacity="0.65"/>
    <circle cx="840" cy="330" r="36" fill="#FAD98C"/>
    <path d="M857 313C851.6 307.2 844 303.5 833.8 303.5C821 303.5 811.4 310.1 811.4 319.2C811.4 327.1 817.8 331.8 830.3 334.3C842.6 336.8 846.8 339.1 846.8 343.6C846.8 348.7 841.8 352.1 833.3 352.1C825.8 352.1 819.5 349.4 813.8 344.3L807.1 351.1C813.6 357.3 822.5 361.1 833.2 361.1C847.9 361.1 857.7 354.1 857.7 343.7C857.7 334.9 852 330.1 837.3 327C826.5 324.7 821.4 322.8 821.4 318.4C821.4 313.6 826.1 310.8 834.2 310.8C840.8 310.8 846.2 313 851 317.8L857 313Z" fill="#7A152A"/>
    <rect x="900" y="309" width="410" height="14" rx="7" fill="#FFEFD1"/>
    <rect x="900" y="338" width="300" height="11" rx="5.5" fill="#F4D7A7"/>
    <text x="1315" y="339" fill="#FFF6EA" font-family="Manrope, Arial, sans-serif" font-size="24" font-weight="700">Store</text>

    <rect x="770" y="426" width="690" height="146" rx="22" fill="#5B0C20" fill-opacity="0.65"/>
    <rect x="804" y="470" width="74" height="74" rx="15" fill="#F7B557"/>
    <path d="M840 487L847 506H866L850 517L856 536L840 524L824 536L830 517L814 506H833L840 487Z" fill="#7A1327"/>
    <rect x="900" y="477" width="410" height="14" rx="7" fill="#FFEFD1"/>
    <rect x="900" y="506" width="300" height="11" rx="5.5" fill="#F4D7A7"/>
    <text x="1312" y="507" fill="#FFF6EA" font-family="Manrope, Arial, sans-serif" font-size="24" font-weight="700">Infra</text>

    <rect x="770" y="594" width="690" height="146" rx="22" fill="#5B0C20" fill-opacity="0.65"/>
    <rect x="802" y="643" width="78" height="58" rx="8" fill="#93E2A8"/>
    <rect x="813" y="630" width="17" height="14" rx="3" fill="#93E2A8"/>
    <rect x="848" y="630" width="17" height="14" rx="3" fill="#93E2A8"/>
    <rect x="900" y="645" width="410" height="14" rx="7" fill="#FFEFD1"/>
    <rect x="900" y="674" width="300" height="11" rx="5.5" fill="#F4D7A7"/>
    <text x="1240" y="675" fill="#FFF6EA" font-family="Manrope, Arial, sans-serif" font-size="24" font-weight="700">Warehouse</text>
  </g>
</svg>
