<svg width="460" height="126" viewBox="0 0 460 126" fill="none" xmlns="http://www.w3.org/2000/svg" role="img" aria-label="Sah and Sons Group logo with Maa Tara blessing motif">
  <defs>
    <linearGradient id="ring" x1="16" y1="14" x2="102" y2="102" gradientUnits="userSpaceOnUse">
      <stop stop-color="#5A0C20"/>
      <stop offset="1" stop-color="#B31D33"/>
    </linearGradient>
    <linearGradient id="gold" x1="39" y1="27" x2="76" y2="86" gradientUnits="userSpaceOnUse">
      <stop stop-color="#FFD67A"/>
      <stop offset="1" stop-color="#D4942E"/>
    </linearGradient>
  </defs>

  <rect x="6" y="6" width="448" height="114" rx="18" fill="#FFFFFF" stroke="#E8DEE3"/>

  <circle cx="59" cy="63" r="43" fill="url(#ring)"/>
  <circle cx="59" cy="63" r="42.5" stroke="#3C0816" stroke-opacity="0.28"/>

  <path d="M59 27.5L64.5 42.4H80.1L67.4 51.9L72.1 66.8L59 57L45.9 66.8L50.6 51.9L37.9 42.4H53.5L59 27.5Z" fill="#FEE7A8"/>
  <path d="M59 40.1C70.1 40.1 79.1 49.1 79.1 60.2C79.1 71.3 70.1 80.3 59 80.3C47.9 80.3 38.9 71.3 38.9 60.2C38.9 49.1 47.9 40.1 59 40.1Z" fill="url(#gold)" fill-opacity="0.16"/>
  <path d="M74.2 49.7C70.8 46 65.8 43.8 59.3 43.8C51 43.8 44.8 48.1 44.8 54C44.8 59.1 48.9 62 57 63.6C64.9 65.2 67.6 66.6 67.6 69.6C67.6 72.8 64.3 75 58.8 75C54 75 49.8 73.3 46.2 70.1L41.8 74.5C46.1 78.6 51.8 81.1 58.8 81.1C68.2 81.1 74.4 76.6 74.4 69.9C74.4 64.3 70.8 61.3 61.5 59.3C54.6 57.8 51.3 56.7 51.3 53.8C51.3 50.7 54.3 48.8 59.4 48.8C63.6 48.8 67 50.2 70 53L74.2 49.7Z" fill="#FFEFC3"/>
  <path d="M31 88.3C39.7 81.6 49.6 78.2 59 78.2C68.4 78.2 78.3 81.6 87 88.3" stroke="#DFA242" stroke-width="4.5" stroke-linecap="round"/>

  <text x="116" y="55" fill="#2C1B22" font-family="Manrope, Arial, sans-serif" font-size="36" font-weight="800" letter-spacing="0.2">Sah and Sons Group</text>
  <text x="116" y="84" fill="#6E4B57" font-family="Manrope, Arial, sans-serif" font-size="16" font-weight="700">With blessings of Maa Tara</text>
</svg>
